<?xml version="1.0" standalone="no"?>
<!DOCTYPE svg PUBLIC "-//W3C//DTD SVG 20010904//EN"
 "http://www.w3.org/TR/2001/REC-SVG-20010904/DTD/svg10.dtd">
<svg version="1.0" xmlns="http://www.w3.org/2000/svg"
 width="48.000000pt" height="48.000000pt" viewBox="0 0 48.000000 48.000000"
 preserveAspectRatio="xMidYMid meet">
<metadata>
Created by potrace 1.16, written by Peter Selinger 2001-2019
</metadata>
<g transform="translate(0.000000,48.000000) scale(0.100000,-0.100000)"
fill="#000000" stroke="none">
<path d="M232 408 c3 -7 18 -14 34 -16 31 -3 54 -26 54 -53 0 -13 -7 -15 -37
-10 -51 8 -101 2 -82 -10 8 -5 9 -9 2 -9 -6 0 -9 -9 -6 -20 6 -22 18 -26 28
-10 11 17 37 11 33 -7 -2 -10 -12 -18 -23 -18 -32 0 -42 -12 -37 -46 3 -21 7
-27 13 -18 11 19 19 7 13 -18 -7 -27 -41 -36 -54 -15 -5 10 -10 13 -10 8 0
-14 40 -75 58 -86 14 -9 13 -10 -6 -5 -21 6 -22 4 -16 -22 4 -15 7 -33 7 -40
0 -7 11 -13 24 -13 15 0 23 6 23 18 0 9 9 32 20 50 25 40 25 46 0 39 -18 -5
-18 -4 2 23 22 30 41 107 28 115 -5 3 -3 16 3 29 7 13 15 22 19 20 5 -3 9 3
10 13 5 61 -28 113 -74 113 -19 0 -28 -4 -26 -12z"/>
</g>
</svg>
